<svg id="svg" version="1.1" xmlns="http://www.w3.org/2000/svg" xmlns:xlink="http://www.w3.org/1999/xlink" width="400" height="400" viewBox="0, 0, 400,400"><g id="svgg"><path id="path0" d="M330.200 5.200 C 330.064 5.420,329.153 5.600,328.176 5.600 C 327.199 5.600,326.400 5.757,326.400 5.948 C 326.400 6.140,325.325 6.418,324.012 6.567 C 322.699 6.715,321.518 7.009,321.389 7.218 C 321.259 7.428,320.713 7.600,320.176 7.600 C 319.639 7.600,319.200 7.780,319.200 8.000 C 319.200 8.220,318.840 8.400,318.400 8.400 C 317.960 8.400,317.600 8.580,317.600 8.800 C 317.600 9.020,317.150 9.200,316.600 9.200 C 316.050 9.200,315.600 9.380,315.600 9.600 C 315.600 9.820,315.240 10.000,314.800 10.000 C 314.360 10.000,314.000 10.158,314.000 10.350 C 314.000 10.543,313.505 10.800,312.900 10.923 C 312.295 11.045,311.403 11.517,310.917 11.973 C 310.431 12.428,309.833 12.800,309.588 12.800 C 309.343 12.800,308.906 13.025,308.616 13.300 C 307.434 14.422,306.369 15.196,305.119 15.839 C 303.770 16.534,302.400 17.855,302.400 18.461 C 302.400 18.648,302.138 18.800,301.818 18.800 C 301.268 18.800,298.327 21.558,295.900 24.349 C 295.295 25.045,294.800 26.053,294.800 26.589 C 294.800 27.125,293.669 29.327,292.287 31.482 C 289.011 36.592,287.447 39.860,285.821 45.000 C 283.769 51.490,283.400 54.108,283.400 62.200 C 283.400 70.737,283.769 73.110,286.292 80.800 C 287.742 85.219,292.202 94.046,293.568 95.200 C 293.698 95.310,294.332 96.120,294.976 97.000 C 300.181 104.106,315.883 115.600,320.387 115.600 C 320.746 115.600,321.211 115.763,321.420 115.963 C 321.966 116.484,329.600 118.231,333.621 118.754 C 339.802 119.560,347.943 118.985,354.000 117.316 C 355.210 116.983,356.697 116.620,357.305 116.509 C 357.913 116.398,358.508 116.149,358.629 115.954 C 358.749 115.759,359.135 115.600,359.488 115.600 C 360.628 115.600,369.000 111.304,372.406 108.972 C 374.229 107.724,376.313 106.539,377.038 106.339 C 378.339 105.979,382.214 102.480,383.800 100.233 C 384.240 99.609,385.005 98.680,385.500 98.168 C 385.995 97.656,386.400 97.114,386.400 96.965 C 386.400 96.816,386.717 96.403,387.106 96.047 C 387.494 95.691,388.169 94.685,388.606 93.811 C 389.042 92.937,389.715 91.868,390.100 91.435 C 390.485 91.003,390.800 90.428,390.800 90.158 C 390.800 89.888,390.943 89.607,391.119 89.533 C 391.564 89.347,393.183 85.785,393.466 84.371 C 393.595 83.727,393.858 83.200,394.050 83.200 C 394.243 83.200,394.400 82.660,394.400 82.000 C 394.400 81.340,394.580 80.800,394.800 80.800 C 395.020 80.800,395.200 80.361,395.200 79.824 C 395.200 79.287,395.380 78.736,395.600 78.600 C 395.820 78.464,396.000 77.733,396.000 76.976 C 396.000 76.219,396.163 75.600,396.361 75.600 C 397.691 75.600,397.689 50.428,396.359 49.020 C 396.162 48.811,396.000 48.046,396.000 47.320 C 396.000 46.594,395.820 46.000,395.600 46.000 C 395.380 46.000,395.200 45.460,395.200 44.800 C 395.200 44.140,395.020 43.600,394.800 43.600 C 394.580 43.600,394.400 43.150,394.400 42.600 C 394.400 42.050,394.236 41.600,394.035 41.600 C 393.834 41.600,393.549 40.881,393.400 40.002 C 393.252 39.123,392.966 38.303,392.765 38.178 C 392.564 38.054,392.400 37.603,392.400 37.176 C 392.400 36.749,392.220 36.400,392.000 36.400 C 391.780 36.400,391.600 36.040,391.600 35.600 C 391.600 35.160,391.420 34.800,391.200 34.800 C 390.980 34.800,390.800 34.596,390.800 34.347 C 390.800 34.098,390.469 33.603,390.064 33.247 C 389.659 32.891,389.206 32.105,389.056 31.500 C 388.907 30.895,388.608 30.400,388.392 30.400 C 388.177 30.400,388.000 30.132,388.000 29.803 C 388.000 29.475,387.640 28.982,387.200 28.707 C 386.760 28.432,386.400 27.973,386.400 27.686 C 386.400 27.399,385.995 26.739,385.500 26.220 C 385.005 25.700,384.240 24.800,383.800 24.219 C 382.352 22.308,378.725 18.800,378.197 18.800 C 378.089 18.800,377.267 18.088,376.370 17.217 C 375.473 16.347,374.393 15.525,373.970 15.390 C 373.546 15.256,373.200 14.978,373.200 14.773 C 373.200 14.568,372.932 14.400,372.603 14.400 C 372.275 14.400,371.782 14.040,371.507 13.600 C 371.232 13.160,370.691 12.800,370.304 12.800 C 369.917 12.800,369.600 12.660,369.600 12.490 C 369.600 12.319,368.792 11.824,367.804 11.390 C 366.816 10.955,366.006 10.465,366.004 10.300 C 366.002 10.135,365.640 10.000,365.200 10.000 C 364.760 10.000,364.400 9.820,364.400 9.600 C 364.400 9.380,363.950 9.200,363.400 9.200 C 362.850 9.200,362.400 9.020,362.400 8.800 C 362.400 8.580,362.040 8.400,361.600 8.400 C 361.160 8.400,360.800 8.220,360.800 8.000 C 360.800 7.780,360.260 7.600,359.600 7.600 C 358.940 7.600,358.400 7.429,358.400 7.220 C 358.400 7.011,357.316 6.717,355.991 6.567 C 354.666 6.417,353.486 6.138,353.367 5.947 C 353.249 5.756,352.353 5.600,351.376 5.600 C 350.399 5.600,349.600 5.420,349.600 5.200 C 349.600 4.944,346.141 4.800,340.024 4.800 C 334.071 4.800,330.354 4.951,330.200 5.200 " stroke="none" fill="#eb4424" fill-rule="evenodd"></path><path id="path1" d="M184.400 4.400 C 184.400 4.640,182.808 4.800,180.424 4.800 C 178.204 4.800,176.338 4.977,176.200 5.200 C 176.064 5.420,174.703 5.600,173.176 5.600 C 171.649 5.600,170.400 5.754,170.400 5.943 C 170.400 6.132,168.375 6.413,165.900 6.568 C 163.425 6.723,161.229 7.019,161.020 7.225 C 160.811 7.431,159.866 7.600,158.920 7.600 C 157.974 7.600,157.200 7.780,157.200 8.000 C 157.200 8.220,156.390 8.400,155.400 8.400 C 154.410 8.400,153.600 8.580,153.600 8.800 C 153.600 9.020,152.880 9.200,152.000 9.200 C 151.120 9.200,150.400 9.380,150.400 9.600 C 150.400 9.820,149.770 10.000,149.000 10.000 C 148.230 10.000,147.600 10.162,147.600 10.359 C 147.600 10.557,146.339 10.845,144.798 11.000 C 143.258 11.155,141.897 11.443,141.775 11.641 C 141.653 11.838,141.113 12.000,140.576 12.000 C 140.039 12.000,139.600 12.180,139.600 12.400 C 139.600 12.620,139.060 12.800,138.400 12.800 C 137.740 12.800,137.200 12.980,137.200 13.200 C 137.200 13.420,136.750 13.600,136.200 13.600 C 135.650 13.600,135.200 13.780,135.200 14.000 C 135.200 14.220,134.570 14.400,133.800 14.400 C 133.030 14.400,132.400 14.569,132.400 14.775 C 132.400 14.982,131.588 15.273,130.595 15.422 C 129.602 15.571,128.692 15.852,128.571 16.046 C 128.451 16.241,127.913 16.400,127.376 16.400 C 126.839 16.400,126.400 16.580,126.400 16.800 C 126.400 17.020,125.950 17.200,125.400 17.200 C 124.850 17.200,124.400 17.380,124.400 17.600 C 124.400 17.820,124.040 18.000,123.600 18.000 C 123.160 18.000,122.800 18.180,122.800 18.400 C 122.800 18.620,122.260 18.800,121.600 18.800 C 120.940 18.800,120.400 18.972,120.400 19.182 C 120.400 19.392,119.770 19.682,119.000 19.826 C 118.230 19.971,117.600 20.249,117.600 20.445 C 117.600 20.640,117.150 20.800,116.600 20.800 C 116.050 20.800,115.600 20.980,115.600 21.200 C 115.600 21.420,115.240 21.600,114.800 21.600 C 114.360 21.600,114.000 21.780,114.000 22.000 C 114.000 22.220,113.640 22.400,113.200 22.400 C 112.760 22.400,112.400 22.580,112.400 22.800 C 112.400 23.020,112.040 23.200,111.600 23.200 C 111.160 23.200,110.800 23.366,110.800 23.568 C 110.800 23.771,110.215 24.051,109.500 24.192 C 107.805 24.524,106.358 25.223,105.553 26.097 C 105.197 26.484,104.612 26.800,104.253 26.800 C 103.894 26.800,103.600 26.980,103.600 27.200 C 103.600 27.420,103.330 27.600,103.000 27.600 C 102.670 27.600,102.400 27.764,102.400 27.965 C 102.400 28.166,101.680 28.451,100.800 28.600 C 99.920 28.749,99.200 29.034,99.200 29.235 C 99.200 29.436,98.930 29.600,98.600 29.600 C 98.270 29.600,98.000 29.780,98.000 30.000 C 98.000 30.220,97.680 30.400,97.288 30.400 C 96.897 30.400,96.317 30.760,96.000 31.200 C 95.683 31.640,95.103 32.000,94.712 32.000 C 94.320 32.000,94.000 32.160,94.000 32.357 C 94.000 32.553,93.550 32.826,93.000 32.964 C 92.450 33.102,92.000 33.392,92.000 33.608 C 92.000 33.823,91.640 34.000,91.200 34.000 C 90.760 34.000,90.400 34.180,90.400 34.400 C 90.400 34.620,90.170 34.800,89.888 34.800 C 89.607 34.800,89.117 35.160,88.800 35.600 C 88.483 36.040,87.903 36.400,87.512 36.400 C 87.120 36.400,86.800 36.568,86.800 36.773 C 86.800 36.978,86.395 37.274,85.900 37.430 C 85.405 37.587,84.709 38.049,84.353 38.457 C 83.997 38.866,83.494 39.200,83.235 39.200 C 82.976 39.200,82.314 39.650,81.764 40.200 C 81.214 40.750,80.626 41.200,80.457 41.200 C 80.289 41.200,79.802 41.515,79.375 41.900 C 78.949 42.285,78.108 42.854,77.507 43.164 C 76.905 43.474,76.308 44.059,76.180 44.464 C 76.051 44.869,75.636 45.200,75.256 45.200 C 74.877 45.200,73.899 45.830,73.082 46.600 C 72.266 47.370,71.509 48.000,71.400 48.000 C 71.291 48.000,70.534 48.630,69.718 49.400 C 68.901 50.170,68.082 50.800,67.897 50.800 C 67.712 50.800,66.211 52.150,64.561 53.800 C 62.911 55.450,61.402 56.800,61.208 56.800 C 60.740 56.800,50.800 66.657,50.800 67.121 C 50.800 67.319,49.540 68.782,48.000 70.372 C 46.460 71.962,45.196 73.473,45.191 73.731 C 45.186 73.989,44.466 74.819,43.591 75.576 C 42.716 76.333,42.000 77.151,42.000 77.393 C 42.000 77.635,41.370 78.501,40.600 79.318 C 39.830 80.134,39.200 80.900,39.200 81.019 C 39.200 81.139,38.750 81.686,38.200 82.236 C 37.650 82.786,37.200 83.497,37.200 83.815 C 37.200 84.133,36.840 84.618,36.400 84.893 C 35.960 85.168,35.600 85.637,35.600 85.936 C 35.600 86.235,35.085 86.960,34.456 87.548 C 33.827 88.135,33.185 89.017,33.029 89.508 C 32.873 89.999,32.578 90.400,32.373 90.400 C 32.168 90.400,32.000 90.760,32.000 91.200 C 32.000 91.640,31.820 92.000,31.600 92.000 C 31.380 92.000,31.200 92.317,31.200 92.704 C 31.200 93.091,30.840 93.632,30.400 93.907 C 29.960 94.182,29.600 94.598,29.600 94.832 C 29.600 95.066,29.330 95.527,29.000 95.857 C 28.670 96.187,28.400 96.804,28.400 97.229 C 28.400 97.653,28.220 98.000,28.000 98.000 C 27.780 98.000,27.600 98.270,27.600 98.600 C 27.600 98.930,27.420 99.200,27.200 99.200 C 26.980 99.200,26.800 99.494,26.800 99.853 C 26.800 100.212,26.476 100.797,26.080 101.153 C 25.247 101.901,24.000 104.424,24.000 105.360 C 24.000 105.712,23.820 106.000,23.600 106.000 C 23.380 106.000,23.200 106.270,23.200 106.600 C 23.200 106.930,23.020 107.200,22.800 107.200 C 22.580 107.200,22.400 107.560,22.400 108.000 C 22.400 108.440,22.220 108.800,22.000 108.800 C 21.780 108.800,21.600 109.160,21.600 109.600 C 21.600 110.040,21.420 110.400,21.200 110.400 C 20.980 110.400,20.800 110.670,20.800 111.000 C 20.800 111.330,20.636 111.600,20.435 111.600 C 20.234 111.600,19.949 112.320,19.800 113.200 C 19.651 114.080,19.366 114.800,19.165 114.800 C 18.964 114.800,18.800 115.070,18.800 115.400 C 18.800 115.730,18.620 116.000,18.400 116.000 C 18.180 116.000,18.000 116.525,18.000 117.167 C 18.000 117.808,17.865 118.393,17.700 118.467 C 17.081 118.742,15.642 122.044,15.381 123.789 C 15.231 124.785,14.950 125.600,14.755 125.600 C 14.560 125.600,14.400 125.960,14.400 126.400 C 14.400 126.840,14.220 127.200,14.000 127.200 C 13.780 127.200,13.600 127.650,13.600 128.200 C 13.600 128.750,13.420 129.200,13.200 129.200 C 12.980 129.200,12.800 129.740,12.800 130.400 C 12.800 131.060,12.620 131.600,12.400 131.600 C 12.180 131.600,12.000 132.039,12.000 132.576 C 12.000 133.113,11.828 133.659,11.618 133.789 C 11.409 133.918,11.115 135.099,10.967 136.412 C 10.818 137.725,10.540 138.800,10.348 138.800 C 10.157 138.800,10.000 139.340,10.000 140.000 C 10.000 140.660,9.820 141.200,9.600 141.200 C 9.380 141.200,9.200 141.830,9.200 142.600 C 9.200 143.370,9.020 144.000,8.800 144.000 C 8.580 144.000,8.400 144.619,8.400 145.376 C 8.400 146.133,8.220 146.864,8.000 147.000 C 7.780 147.136,7.600 147.946,7.600 148.800 C 7.600 149.654,7.434 150.455,7.232 150.580 C 7.029 150.706,6.736 152.606,6.580 154.804 C 6.424 157.002,6.140 158.800,5.948 158.800 C 5.757 158.800,5.600 159.869,5.600 161.176 C 5.600 162.483,5.420 163.664,5.200 163.800 C 4.980 163.936,4.800 165.657,4.800 167.624 C 4.800 169.741,4.637 171.200,4.400 171.200 C 4.141 171.200,4.000 176.200,4.000 185.400 C 4.000 194.600,4.141 199.600,4.400 199.600 C 4.637 199.600,4.800 201.067,4.800 203.200 C 4.800 205.333,4.963 206.800,5.200 206.800 C 5.426 206.800,5.600 207.933,5.600 209.400 C 5.600 210.830,5.757 212.000,5.948 212.000 C 6.140 212.000,6.425 213.800,6.581 216.000 C 6.737 218.200,7.030 220.000,7.232 220.000 C 7.434 220.000,7.600 220.799,7.600 221.776 C 7.600 222.753,7.780 223.664,8.000 223.800 C 8.220 223.936,8.400 224.667,8.400 225.424 C 8.400 226.181,8.580 226.800,8.800 226.800 C 9.020 226.800,9.200 227.430,9.200 228.200 C 9.200 228.970,9.380 229.600,9.600 229.600 C 9.820 229.600,10.000 230.230,10.000 231.000 C 10.000 231.770,10.159 232.400,10.354 232.400 C 10.549 232.400,10.832 233.390,10.983 234.600 C 11.134 235.810,11.425 236.800,11.629 236.800 C 11.833 236.800,12.000 237.340,12.000 238.000 C 12.000 238.660,12.180 239.200,12.400 239.200 C 12.620 239.200,12.800 239.650,12.800 240.200 C 12.800 240.750,12.980 241.200,13.200 241.200 C 13.420 241.200,13.600 241.740,13.600 242.400 C 13.600 243.060,13.780 243.600,14.000 243.600 C 14.220 243.600,14.400 244.050,14.400 244.600 C 14.400 245.150,14.580 245.600,14.800 245.600 C 15.020 245.600,15.200 246.049,15.200 246.597 C 15.200 247.737,16.435 250.800,16.894 250.800 C 17.062 250.800,17.200 251.340,17.200 252.000 C 17.200 252.660,17.380 253.200,17.600 253.200 C 17.820 253.200,18.000 253.470,18.000 253.800 C 18.000 254.130,18.180 254.400,18.400 254.400 C 18.620 254.400,18.800 254.760,18.800 255.200 C 18.800 255.640,18.980 256.000,19.200 256.000 C 19.420 256.000,19.601 256.405,19.602 256.900 C 19.604 257.395,19.874 258.316,20.202 258.946 C 20.531 259.576,20.800 260.341,20.800 260.646 C 20.800 260.951,20.946 261.200,21.125 261.200 C 21.304 261.200,21.698 261.830,22.000 262.600 C 22.302 263.370,22.696 264.000,22.875 264.000 C 23.054 264.000,23.200 264.360,23.200 264.800 C 23.200 265.240,23.360 265.600,23.557 265.600 C 23.753 265.600,24.026 266.050,24.164 266.600 C 24.302 267.150,24.592 267.600,24.808 267.600 C 25.023 267.600,25.200 267.960,25.200 268.400 C 25.200 268.840,25.380 269.200,25.600 269.200 C 25.820 269.200,26.000 269.560,26.000 270.000 C 26.000 270.440,26.180 270.800,26.400 270.800 C 26.620 270.800,26.800 271.004,26.800 271.253 C 26.800 271.502,27.136 271.997,27.546 272.353 C 27.957 272.709,28.413 273.551,28.561 274.223 C 28.709 274.895,29.183 275.699,29.615 276.011 C 30.047 276.322,30.400 276.857,30.400 277.200 C 30.400 277.543,30.760 278.083,31.200 278.400 C 31.640 278.717,32.000 279.278,32.000 279.646 C 32.000 280.013,32.270 280.418,32.600 280.545 C 32.930 280.671,33.200 281.101,33.200 281.499 C 33.200 281.897,33.560 282.483,34.000 282.800 C 34.440 283.117,34.800 283.605,34.800 283.885 C 34.800 284.164,35.160 284.618,35.600 284.893 C 36.040 285.168,36.400 285.632,36.400 285.925 C 36.400 286.218,36.625 286.708,36.900 287.015 C 37.996 288.236,38.400 288.778,38.400 289.023 C 38.400 289.164,38.940 289.783,39.600 290.400 C 40.260 291.017,40.800 291.742,40.800 292.013 C 40.800 292.284,41.430 293.100,42.200 293.826 C 42.970 294.552,43.600 295.354,43.600 295.609 C 43.600 295.863,44.410 296.859,45.400 297.821 C 46.390 298.783,47.200 299.847,47.200 300.185 C 47.200 300.523,47.355 300.800,47.544 300.800 C 47.733 300.800,48.498 301.447,49.244 302.237 C 49.990 303.028,51.179 304.243,51.887 304.937 C 52.594 305.632,53.379 306.406,53.629 306.657 C 53.880 306.909,54.869 307.899,55.828 308.857 C 56.786 309.816,57.802 310.832,58.085 311.115 C 58.368 311.398,59.370 312.433,60.311 313.415 C 61.251 314.397,62.151 315.201,62.311 315.201 C 62.470 315.202,62.960 315.741,63.400 316.400 C 63.840 317.059,64.441 317.598,64.735 317.599 C 65.029 317.599,66.236 318.590,67.417 319.800 C 68.599 321.010,69.765 322.000,70.009 322.000 C 70.254 322.000,71.048 322.630,71.774 323.400 C 72.500 324.170,73.316 324.800,73.587 324.800 C 73.858 324.800,74.601 325.359,75.240 326.042 L 76.400 327.285 76.400 361.642 L 76.400 396.000 77.725 396.000 C 78.496 396.000,79.408 395.666,79.908 395.200 C 80.380 394.760,80.954 394.400,81.183 394.400 C 81.412 394.400,81.600 394.220,81.600 394.000 C 81.600 393.780,81.888 393.600,82.240 393.600 C 83.176 393.600,85.699 392.353,86.447 391.520 C 86.803 391.124,87.388 390.800,87.747 390.800 C 88.106 390.800,88.400 390.620,88.400 390.400 C 88.400 390.180,88.670 390.000,89.000 390.000 C 89.330 390.000,89.600 389.820,89.600 389.600 C 89.600 389.380,89.888 389.200,90.240 389.200 C 91.176 389.200,93.699 387.953,94.447 387.120 C 94.803 386.724,95.388 386.400,95.747 386.400 C 96.106 386.400,96.400 386.220,96.400 386.000 C 96.400 385.780,96.760 385.600,97.200 385.600 C 97.640 385.600,98.000 385.434,98.000 385.232 C 98.000 385.029,98.516 384.750,99.146 384.612 C 99.776 384.473,100.669 384.009,101.129 383.580 C 101.590 383.151,102.154 382.800,102.383 382.800 C 102.612 382.800,102.800 382.620,102.800 382.400 C 102.800 382.180,103.160 382.000,103.600 382.000 C 104.040 382.000,104.400 381.820,104.400 381.600 C 104.400 381.380,104.760 381.200,105.200 381.200 C 105.640 381.200,106.000 381.034,106.000 380.832 C 106.000 380.629,106.516 380.350,107.146 380.212 C 107.776 380.073,108.669 379.609,109.129 379.180 C 109.590 378.751,110.154 378.400,110.383 378.400 C 110.612 378.400,110.800 378.220,110.800 378.000 C 110.800 377.780,111.160 377.600,111.600 377.600 C 112.040 377.600,112.400 377.420,112.400 377.200 C 112.400 376.980,112.760 376.800,113.200 376.800 C 113.640 376.800,114.000 376.634,114.000 376.432 C 114.000 376.229,114.516 375.950,115.146 375.812 C 115.776 375.673,116.669 375.209,117.129 374.780 C 117.590 374.351,118.244 374.000,118.583 374.000 C 118.922 374.000,119.200 373.820,119.200 373.600 C 119.200 373.380,119.470 373.200,119.800 373.200 C 120.130 373.200,120.400 373.020,120.400 372.800 C 120.400 372.580,120.760 372.400,121.200 372.400 C 121.640 372.400,122.000 372.220,122.000 372.000 C 122.000 371.780,122.366 371.600,122.813 371.600 C 123.259 371.600,123.729 371.330,123.855 371.000 C 123.982 370.670,124.426 370.400,124.843 370.400 C 125.259 370.400,125.600 370.220,125.600 370.000 C 125.600 369.780,125.960 369.600,126.400 369.600 C 126.840 369.600,127.200 369.420,127.200 369.200 C 127.200 368.980,127.470 368.800,127.800 368.800 C 128.130 368.800,128.400 368.620,128.400 368.400 C 128.400 368.180,128.760 368.000,129.200 368.000 C 129.640 368.000,130.000 367.820,130.000 367.600 C 130.000 367.380,130.338 367.200,130.751 367.200 C 131.164 367.200,131.726 366.930,132.000 366.600 C 132.274 366.270,132.746 366.000,133.049 366.000 C 133.352 366.000,133.600 365.820,133.600 365.600 C 133.600 365.380,133.960 365.200,134.400 365.200 C 134.840 365.200,135.200 365.020,135.200 364.800 C 135.200 364.580,135.560 364.400,136.000 364.400 C 136.440 364.400,136.801 364.265,136.801 364.100 C 136.802 363.935,137.612 363.467,138.601 363.060 C 139.591 362.654,140.400 362.159,140.400 361.960 C 140.400 361.762,140.670 361.600,141.000 361.600 C 141.330 361.600,141.600 361.420,141.600 361.200 C 141.600 360.980,141.960 360.800,142.400 360.800 C 142.840 360.800,143.200 360.620,143.200 360.400 C 143.200 360.180,143.830 360.000,144.600 360.000 C 145.370 360.000,146.000 360.180,146.000 360.400 C 146.000 360.620,146.720 360.800,147.600 360.800 C 148.480 360.800,149.200 360.980,149.200 361.200 C 149.200 361.420,149.819 361.600,150.576 361.600 C 151.333 361.600,152.064 361.780,152.200 362.000 C 152.336 362.220,153.146 362.400,154.000 362.400 C 154.854 362.400,155.656 362.567,155.782 362.770 C 155.908 362.974,157.628 363.267,159.605 363.422 C 161.582 363.577,163.200 363.860,163.200 364.052 C 163.200 364.243,164.190 364.400,165.400 364.400 C 166.610 364.400,167.600 364.580,167.600 364.800 C 167.600 365.029,168.800 365.200,170.400 365.200 C 172.000 365.200,173.200 365.371,173.200 365.600 C 173.200 365.835,174.589 366.000,176.567 366.000 C 178.879 366.000,179.985 366.154,180.098 366.493 C 180.337 367.212,219.663 367.212,219.902 366.493 C 220.015 366.154,221.121 366.000,223.433 366.000 C 225.411 366.000,226.800 365.835,226.800 365.600 C 226.800 365.371,228.000 365.200,229.600 365.200 C 231.200 365.200,232.400 365.029,232.400 364.800 C 232.400 364.580,233.390 364.400,234.600 364.400 C 235.810 364.400,236.800 364.243,236.800 364.052 C 236.800 363.860,238.418 363.577,240.395 363.422 C 242.372 363.267,244.092 362.974,244.218 362.770 C 244.344 362.567,245.247 362.400,246.224 362.400 C 247.201 362.400,248.000 362.220,248.000 362.000 C 248.000 361.780,248.630 361.600,249.400 361.600 C 250.170 361.600,250.800 361.420,250.800 361.200 C 250.800 360.980,251.520 360.800,252.400 360.800 C 253.280 360.800,254.000 360.620,254.000 360.400 C 254.000 360.180,254.630 360.000,255.400 360.000 C 256.170 360.000,256.800 359.845,256.800 359.655 C 256.800 359.466,257.925 359.098,259.300 358.839 C 263.590 358.031,264.000 357.919,264.000 357.555 C 264.000 357.360,264.540 357.200,265.200 357.200 C 265.860 357.200,266.400 357.020,266.400 356.800 C 266.400 356.580,266.850 356.400,267.400 356.400 C 267.950 356.400,268.400 356.220,268.400 356.000 C 268.400 355.780,268.940 355.600,269.600 355.600 C 270.260 355.600,270.800 355.440,270.800 355.245 C 270.800 355.050,271.610 354.769,272.600 354.621 C 273.590 354.472,274.400 354.182,274.400 353.975 C 274.400 353.769,274.850 353.600,275.400 353.600 C 275.950 353.600,276.400 353.420,276.400 353.200 C 276.400 352.980,276.760 352.800,277.200 352.800 C 277.640 352.800,278.000 352.620,278.000 352.400 C 278.000 352.180,278.362 352.000,278.805 352.000 C 279.560 352.000,281.153 351.295,281.600 350.762 C 281.710 350.631,282.519 350.410,283.397 350.271 C 284.275 350.132,285.055 349.835,285.130 349.609 C 285.205 349.384,285.612 349.200,286.033 349.200 C 286.455 349.200,286.800 349.020,286.800 348.800 C 286.800 348.580,287.160 348.400,287.600 348.400 C 288.040 348.400,288.400 348.220,288.400 348.000 C 288.400 347.780,288.670 347.600,289.000 347.600 C 289.330 347.600,289.600 347.420,289.600 347.200 C 289.600 346.980,289.960 346.800,290.400 346.800 C 290.840 346.800,291.200 346.640,291.200 346.445 C 291.200 346.249,291.830 345.971,292.600 345.826 C 293.370 345.682,294.000 345.392,294.000 345.182 C 294.000 344.972,294.360 344.800,294.800 344.800 C 295.240 344.800,295.600 344.620,295.600 344.400 C 295.600 344.180,295.960 344.000,296.400 344.000 C 296.840 344.000,297.200 343.820,297.200 343.600 C 297.200 343.380,297.470 343.200,297.800 343.200 C 298.130 343.200,298.400 343.020,298.400 342.800 C 298.400 342.580,298.760 342.400,299.200 342.400 C 299.640 342.400,300.000 342.243,300.000 342.050 C 300.000 341.858,300.495 341.600,301.100 341.477 C 301.705 341.355,302.597 340.883,303.083 340.427 C 303.569 339.972,304.244 339.600,304.583 339.600 C 304.922 339.600,305.200 339.420,305.200 339.200 C 305.200 338.980,305.404 338.800,305.653 338.800 C 305.902 338.800,306.397 338.469,306.753 338.064 C 307.109 337.659,307.900 337.205,308.510 337.054 C 309.121 336.903,309.976 336.424,310.410 335.990 C 310.845 335.555,311.430 335.200,311.712 335.200 C 311.993 335.200,312.483 334.840,312.800 334.400 C 313.117 333.960,313.678 333.600,314.046 333.600 C 314.413 333.600,314.818 333.330,314.945 333.000 C 315.071 332.670,315.501 332.400,315.899 332.400 C 316.297 332.400,316.883 332.040,317.200 331.600 C 317.517 331.160,318.085 330.800,318.461 330.800 C 318.838 330.800,319.260 330.440,319.400 330.000 C 319.540 329.560,319.925 329.200,320.256 329.200 C 320.586 329.200,321.108 328.975,321.415 328.700 C 322.636 327.604,323.178 327.200,323.423 327.200 C 323.564 327.200,324.183 326.660,324.800 326.000 C 325.417 325.340,326.142 324.800,326.413 324.800 C 326.684 324.800,327.500 324.170,328.226 323.400 C 328.952 322.630,329.746 322.000,329.991 322.000 C 330.235 322.000,331.401 321.010,332.583 319.800 C 333.764 318.590,334.971 317.599,335.265 317.599 C 335.559 317.598,336.160 317.059,336.600 316.400 C 337.040 315.741,337.530 315.202,337.689 315.201 C 337.849 315.201,338.775 314.371,339.747 313.357 C 340.719 312.344,341.695 311.335,341.915 311.115 C 342.135 310.895,343.125 309.905,344.115 308.915 C 345.105 307.925,346.095 306.935,346.315 306.715 C 346.535 306.495,347.544 305.519,348.557 304.547 C 349.571 303.574,350.401 302.649,350.401 302.489 C 350.402 302.330,350.941 301.840,351.600 301.400 C 352.259 300.960,352.798 300.368,352.799 300.085 C 352.799 299.802,353.610 298.783,354.600 297.821 C 355.590 296.859,356.400 295.851,356.400 295.581 C 356.400 295.311,357.030 294.552,357.800 293.894 C 358.570 293.236,359.200 292.433,359.200 292.110 C 359.200 291.786,359.740 291.017,360.400 290.400 C 361.060 289.783,361.600 289.163,361.600 289.021 C 361.600 288.880,362.050 288.314,362.600 287.764 C 363.150 287.214,363.600 286.455,363.600 286.078 C 363.600 285.701,363.960 285.168,364.400 284.893 C 364.840 284.618,365.200 284.207,365.200 283.978 C 365.200 283.750,365.650 283.114,366.200 282.564 C 366.750 282.014,367.200 281.302,367.200 280.982 C 367.200 280.662,367.380 280.400,367.600 280.400 C 367.820 280.400,368.000 280.080,368.000 279.688 C 368.000 279.297,368.360 278.717,368.800 278.400 C 369.240 278.083,369.600 277.543,369.600 277.200 C 369.600 276.857,369.953 276.322,370.385 276.011 C 370.817 275.699,371.291 274.895,371.439 274.223 C 371.587 273.551,372.043 272.709,372.454 272.353 C 372.864 271.997,373.200 271.502,373.200 271.253 C 373.200 271.004,373.380 270.800,373.600 270.800 C 373.820 270.800,374.000 270.440,374.000 270.000 C 374.000 269.560,374.180 269.200,374.400 269.200 C 374.620 269.200,374.800 268.840,374.800 268.400 C 374.800 267.960,374.977 267.600,375.192 267.600 C 375.408 267.600,375.698 267.150,375.836 266.600 C 375.974 266.050,376.247 265.600,376.443 265.600 C 376.640 265.600,376.800 265.240,376.800 264.800 C 376.800 264.360,376.946 264.000,377.125 264.000 C 377.304 264.000,377.698 263.370,378.000 262.600 C 378.302 261.830,378.696 261.200,378.875 261.200 C 379.054 261.200,379.200 260.951,379.200 260.646 C 379.200 260.341,379.469 259.576,379.798 258.946 C 380.126 258.316,380.396 257.395,380.398 256.900 C 380.399 256.405,380.580 256.000,380.800 256.000 C 381.020 256.000,381.200 255.640,381.200 255.200 C 381.200 254.760,381.380 254.400,381.600 254.400 C 381.820 254.400,382.000 254.130,382.000 253.800 C 382.000 253.470,382.180 253.200,382.400 253.200 C 382.620 253.200,382.800 252.840,382.800 252.400 C 382.800 251.960,382.980 251.600,383.200 251.600 C 383.420 251.600,383.600 251.261,383.600 250.846 C 383.600 250.431,383.869 249.576,384.198 248.946 C 384.526 248.316,384.796 247.305,384.798 246.700 C 384.799 246.095,384.980 245.600,385.200 245.600 C 385.420 245.600,385.600 245.150,385.600 244.600 C 385.600 244.050,385.780 243.600,386.000 243.600 C 386.220 243.600,386.400 243.060,386.400 242.400 C 386.400 241.740,386.580 241.200,386.800 241.200 C 387.020 241.200,387.200 240.750,387.200 240.200 C 387.200 239.650,387.380 239.200,387.600 239.200 C 387.820 239.200,388.000 238.660,388.000 238.000 C 388.000 237.340,388.163 236.800,388.362 236.800 C 388.562 236.800,388.849 235.900,389.000 234.800 C 389.151 233.701,389.438 232.700,389.637 232.577 C 389.837 232.454,390.000 231.733,390.000 230.976 C 390.000 230.219,390.180 229.600,390.400 229.600 C 390.620 229.600,390.800 228.970,390.800 228.200 C 390.800 227.430,390.980 226.800,391.200 226.800 C 391.420 226.800,391.600 226.181,391.600 225.424 C 391.600 224.667,391.780 223.936,392.000 223.800 C 392.220 223.664,392.400 222.753,392.400 221.776 C 392.400 220.799,392.566 220.000,392.768 220.000 C 392.970 220.000,393.263 218.200,393.419 216.000 C 393.575 213.800,393.860 212.000,394.052 212.000 C 394.243 212.000,394.400 210.830,394.400 209.400 C 394.400 207.933,394.574 206.800,394.800 206.800 C 395.037 206.800,395.200 205.333,395.200 203.200 C 395.200 201.067,395.363 199.600,395.600 199.600 C 395.859 199.600,396.000 194.600,396.000 185.400 C 396.000 176.200,395.859 171.200,395.600 171.200 C 395.363 171.200,395.200 169.741,395.200 167.624 C 395.200 165.657,395.020 163.936,394.800 163.800 C 394.580 163.664,394.400 162.483,394.400 161.176 C 394.400 159.869,394.243 158.800,394.052 158.800 C 393.860 158.800,393.576 157.002,393.420 154.804 C 393.264 152.606,392.971 150.706,392.768 150.580 C 392.566 150.455,392.400 149.733,392.400 148.976 C 392.400 148.219,392.220 147.600,392.000 147.600 C 391.780 147.600,391.600 146.790,391.600 145.800 C 391.600 144.810,391.420 144.000,391.200 144.000 C 390.980 144.000,390.800 143.370,390.800 142.600 C 390.800 141.830,390.620 141.200,390.400 141.200 C 390.180 141.200,390.000 140.660,390.000 140.000 C 390.000 139.340,389.843 138.800,389.652 138.800 C 389.460 138.800,389.182 137.725,389.033 136.412 C 388.885 135.099,388.591 133.918,388.382 133.789 C 388.172 133.659,388.000 133.113,388.000 132.576 C 388.000 132.039,387.820 131.600,387.600 131.600 C 387.380 131.600,387.200 131.060,387.200 130.400 C 387.200 129.740,387.020 129.200,386.800 129.200 C 386.580 129.200,386.400 128.750,386.400 128.200 C 386.400 127.650,386.220 127.200,386.000 127.200 C 385.780 127.200,385.600 126.840,385.600 126.400 C 385.600 125.960,385.440 125.600,385.245 125.600 C 385.050 125.600,384.769 124.785,384.619 123.789 C 384.358 122.044,382.919 118.742,382.300 118.467 C 382.135 118.393,382.000 117.808,382.000 117.167 C 382.000 116.525,381.820 116.000,381.600 116.000 C 381.380 116.000,381.200 115.730,381.200 115.400 C 381.200 115.070,381.036 114.800,380.835 114.800 C 380.634 114.800,380.349 114.080,380.200 113.200 C 380.051 112.320,379.766 111.600,379.565 111.600 C 379.364 111.600,379.200 111.330,379.200 111.000 C 379.200 110.670,379.020 110.400,378.800 110.400 C 378.580 110.400,378.400 110.040,378.400 109.600 C 378.400 109.160,378.220 108.800,378.000 108.800 C 377.780 108.800,377.600 108.440,377.600 108.000 C 377.600 106.629,376.241 107.071,372.325 109.715 C 370.276 111.098,367.160 112.919,365.400 113.762 C 361.048 115.847,359.517 116.469,356.600 117.339 C 354.693 117.907,353.269 118.230,348.469 119.179 C 345.822 119.702,333.814 119.733,331.506 119.223 C 330.568 119.015,328.810 118.638,327.600 118.384 C 326.390 118.130,324.259 117.581,322.865 117.163 C 312.760 114.138,301.047 106.181,295.248 98.400 C 294.674 97.630,294.091 96.910,293.953 96.800 C 292.674 95.784,287.180 85.852,286.585 83.482 C 286.434 82.883,286.151 82.294,285.956 82.173 C 285.760 82.052,285.600 81.601,285.600 81.171 C 285.600 80.741,285.438 80.077,285.239 79.695 C 285.040 79.313,284.695 78.280,284.471 77.400 C 284.247 76.520,283.866 75.050,283.625 74.133 C 282.919 71.441,282.501 62.585,282.837 57.400 C 283.116 53.098,283.595 50.390,284.854 46.000 C 285.075 45.230,285.355 44.192,285.476 43.694 C 285.597 43.196,285.854 42.690,286.048 42.570 C 286.241 42.451,286.400 42.071,286.400 41.726 C 286.400 41.109,288.365 36.388,288.784 36.000 C 288.903 35.890,289.435 34.990,289.968 34.000 C 290.500 33.010,291.733 31.071,292.709 29.691 C 295.186 26.188,294.734 25.066,290.500 24.202 C 289.785 24.056,289.200 23.771,289.200 23.568 C 289.200 23.366,288.840 23.200,288.400 23.200 C 287.960 23.200,287.600 23.020,287.600 22.800 C 287.600 22.580,287.240 22.400,286.800 22.400 C 286.360 22.400,285.999 22.265,285.997 22.100 C 285.993 21.694,284.014 20.800,283.120 20.800 C 282.724 20.800,282.400 20.640,282.400 20.445 C 282.400 20.249,281.770 19.971,281.000 19.826 C 280.230 19.682,279.600 19.392,279.600 19.182 C 279.600 18.972,279.060 18.800,278.400 18.800 C 277.740 18.800,277.200 18.620,277.200 18.400 C 277.200 18.180,276.840 18.000,276.400 18.000 C 275.960 18.000,275.600 17.820,275.600 17.600 C 275.600 17.380,275.150 17.200,274.600 17.200 C 274.050 17.200,273.600 17.020,273.600 16.800 C 273.600 16.580,273.161 16.400,272.624 16.400 C 272.087 16.400,271.549 16.241,271.429 16.046 C 271.308 15.852,270.398 15.571,269.405 15.422 C 268.412 15.273,267.600 14.982,267.600 14.775 C 267.600 14.569,266.970 14.400,266.200 14.400 C 265.430 14.400,264.800 14.220,264.800 14.000 C 264.800 13.780,264.350 13.600,263.800 13.600 C 263.250 13.600,262.800 13.420,262.800 13.200 C 262.800 12.980,262.260 12.800,261.600 12.800 C 260.940 12.800,260.400 12.620,260.400 12.400 C 260.400 12.180,259.961 12.000,259.424 12.000 C 258.887 12.000,258.347 11.838,258.225 11.641 C 258.103 11.443,256.742 11.155,255.202 11.000 C 253.661 10.845,252.400 10.557,252.400 10.359 C 252.400 10.162,251.770 10.000,251.000 10.000 C 250.230 10.000,249.600 9.820,249.600 9.600 C 249.600 9.380,248.880 9.200,248.000 9.200 C 247.120 9.200,246.400 9.020,246.400 8.800 C 246.400 8.580,245.590 8.400,244.600 8.400 C 243.610 8.400,242.800 8.220,242.800 8.000 C 242.800 7.780,242.026 7.600,241.080 7.600 C 240.134 7.600,239.189 7.431,238.980 7.225 C 238.771 7.019,236.575 6.723,234.100 6.568 C 231.625 6.413,229.600 6.132,229.600 5.943 C 229.600 5.754,228.340 5.600,226.800 5.600 C 225.200 5.600,224.000 5.429,224.000 5.200 C 224.000 4.959,222.333 4.800,219.800 4.800 C 217.267 4.800,215.600 4.641,215.600 4.400 C 215.600 4.140,210.133 4.000,200.000 4.000 C 189.867 4.000,184.400 4.140,184.400 4.400 M186.040 143.203 C 189.538 146.725,192.400 149.713,192.400 149.842 C 192.400 150.083,196.380 154.266,199.600 157.411 C 200.590 158.378,201.528 159.311,201.685 159.485 C 201.918 159.742,203.861 161.698,206.200 164.028 C 206.420 164.247,207.191 165.051,207.913 165.813 C 208.636 166.576,209.401 167.200,209.613 167.200 C 209.826 167.200,210.000 167.501,210.000 167.868 C 210.000 168.439,211.328 169.921,216.252 174.844 C 216.721 175.312,217.734 176.326,218.504 177.096 C 219.274 177.866,220.264 178.856,220.704 179.296 C 221.144 179.736,222.111 180.701,222.852 181.441 C 223.594 182.181,224.579 183.194,225.043 183.693 C 225.507 184.192,226.272 184.865,226.743 185.188 C 227.214 185.512,227.600 186.006,227.600 186.285 C 227.600 188.941,231.448 189.460,233.643 187.100 C 234.001 186.715,234.588 186.400,234.947 186.400 C 235.306 186.400,235.600 186.220,235.600 186.000 C 235.600 185.780,235.870 185.600,236.200 185.600 C 236.530 185.600,236.800 185.420,236.800 185.200 C 236.800 184.980,237.088 184.800,237.440 184.800 C 238.376 184.800,240.899 183.553,241.647 182.720 C 242.003 182.324,242.588 182.000,242.947 182.000 C 243.306 182.000,243.600 181.820,243.600 181.600 C 243.600 181.380,243.960 181.200,244.400 181.200 C 244.840 181.200,245.200 181.034,245.200 180.832 C 245.200 180.629,245.716 180.350,246.346 180.212 C 246.976 180.073,247.869 179.609,248.329 179.180 C 248.790 178.751,249.354 178.400,249.583 178.400 C 249.812 178.400,250.000 178.220,250.000 178.000 C 250.000 177.780,250.360 177.600,250.800 177.600 C 251.240 177.600,251.600 177.420,251.600 177.200 C 251.600 176.980,251.960 176.800,252.400 176.800 C 252.840 176.800,253.200 176.640,253.200 176.443 C 253.200 176.247,253.650 175.974,254.200 175.836 C 254.750 175.698,255.200 175.408,255.200 175.192 C 255.200 174.977,255.560 174.800,256.000 174.800 C 256.440 174.800,256.800 174.620,256.800 174.400 C 256.800 174.180,257.160 174.000,257.600 174.000 C 258.040 174.000,258.400 173.820,258.400 173.600 C 258.400 173.380,258.670 173.200,259.000 173.200 C 259.330 173.200,259.600 173.020,259.600 172.800 C 259.600 172.580,259.960 172.400,260.400 172.400 C 260.840 172.400,261.200 172.223,261.200 172.008 C 261.200 171.792,261.650 171.502,262.200 171.364 C 262.750 171.226,263.200 170.953,263.200 170.757 C 263.200 170.560,263.560 170.400,264.000 170.400 C 264.440 170.400,264.800 170.220,264.800 170.000 C 264.800 169.780,265.160 169.600,265.600 169.600 C 266.040 169.600,266.400 169.420,266.400 169.200 C 266.400 168.980,266.630 168.800,266.912 168.800 C 267.193 168.800,267.683 168.440,268.000 168.000 C 268.317 167.560,268.806 167.200,269.086 167.200 C 269.852 167.200,272.800 165.855,272.800 165.506 C 272.800 165.338,273.160 165.200,273.600 165.200 C 274.040 165.200,274.400 165.020,274.400 164.800 C 274.400 164.580,274.593 164.400,274.829 164.400 C 275.064 164.400,275.527 164.130,275.857 163.800 C 276.187 163.470,276.804 163.200,277.229 163.200 C 277.653 163.200,278.000 163.054,278.000 162.875 C 278.000 162.696,278.630 162.302,279.400 162.000 C 280.170 161.698,280.800 161.304,280.800 161.125 C 280.800 160.946,281.094 160.800,281.453 160.800 C 281.812 160.800,282.397 160.464,282.753 160.054 C 283.109 159.643,283.986 159.179,284.700 159.022 C 285.415 158.865,286.000 158.571,286.000 158.368 C 286.000 158.166,286.360 158.000,286.800 158.000 C 287.240 158.000,287.600 157.820,287.600 157.600 C 287.600 157.380,287.830 157.200,288.112 157.200 C 288.393 157.200,288.883 156.840,289.200 156.400 C 289.517 155.960,290.097 155.600,290.488 155.600 C 290.880 155.600,291.200 155.440,291.200 155.245 C 291.200 155.049,291.830 154.771,292.600 154.626 C 293.370 154.482,294.000 154.192,294.000 153.982 C 294.000 153.772,294.236 153.600,294.525 153.600 C 294.813 153.600,295.436 153.240,295.908 152.800 C 296.380 152.360,297.044 152.000,297.383 152.000 C 297.722 152.000,298.000 151.820,298.000 151.600 C 298.000 151.380,298.270 151.200,298.600 151.200 C 298.930 151.200,299.200 151.042,299.200 150.850 C 299.200 150.657,299.695 150.400,300.300 150.277 C 300.905 150.155,301.797 149.683,302.283 149.227 C 302.769 148.772,303.444 148.400,303.783 148.400 C 304.122 148.400,304.400 148.220,304.400 148.000 C 304.400 147.780,304.760 147.600,305.200 147.600 C 305.640 147.600,306.000 147.420,306.000 147.200 C 306.000 146.980,306.270 146.800,306.600 146.800 C 306.930 146.800,307.200 146.620,307.200 146.400 C 307.200 146.180,307.547 146.000,307.971 146.000 C 308.396 146.000,309.013 145.730,309.343 145.400 C 309.673 145.070,310.136 144.800,310.371 144.800 C 310.607 144.800,310.800 144.620,310.800 144.400 C 310.800 144.180,311.160 144.000,311.600 144.000 C 312.040 144.000,312.400 143.820,312.400 143.600 C 312.400 143.380,312.760 143.200,313.200 143.200 C 313.640 143.200,314.000 143.020,314.000 142.800 C 314.000 142.580,314.270 142.400,314.600 142.400 C 314.930 142.400,315.200 142.220,315.200 142.000 C 315.200 141.780,315.547 141.600,315.971 141.600 C 316.396 141.600,317.013 141.330,317.343 141.000 C 317.673 140.670,318.211 140.400,318.538 140.400 C 318.865 140.400,319.214 140.175,319.312 139.900 C 319.410 139.625,319.634 139.534,319.809 139.697 C 319.985 139.861,319.739 140.332,319.264 140.744 C 318.789 141.157,318.400 141.613,318.400 141.758 C 318.400 141.904,315.790 144.638,312.600 147.834 C 309.410 151.030,306.800 153.811,306.800 154.013 C 306.800 154.216,303.920 157.270,300.400 160.800 C 296.880 164.330,294.000 167.391,294.000 167.602 C 294.000 167.812,291.390 170.593,288.200 173.780 C 285.010 176.967,282.400 179.709,282.400 179.873 C 282.400 180.204,281.771 180.893,278.923 183.685 C 277.865 184.721,276.820 185.764,276.600 186.003 C 276.380 186.242,274.985 187.665,273.500 189.166 C 272.015 190.668,270.800 192.189,270.800 192.548 C 270.800 192.907,270.626 193.200,270.413 193.200 C 270.201 193.200,269.412 193.852,268.661 194.648 C 267.910 195.444,266.906 196.479,266.431 196.948 C 265.955 197.417,264.989 198.410,264.283 199.155 C 263.577 199.900,262.159 201.314,261.131 202.297 C 260.103 203.280,259.046 204.605,258.783 205.242 C 258.519 205.879,258.150 206.400,257.962 206.400 C 257.774 206.400,256.851 207.203,255.911 208.185 C 253.861 210.325,253.664 210.523,251.943 212.182 C 251.205 212.894,250.217 213.910,249.750 214.439 C 249.282 214.967,248.337 215.910,247.650 216.534 C 246.962 217.158,246.400 217.844,246.400 218.059 C 246.400 218.275,244.375 220.501,241.900 223.006 C 239.425 225.511,237.199 227.794,236.954 228.080 C 236.708 228.366,236.123 228.865,235.654 229.188 C 235.184 229.512,234.800 230.014,234.800 230.305 C 234.800 230.596,232.190 233.438,229.000 236.620 C 225.810 239.803,223.200 242.593,223.200 242.822 C 223.200 243.218,222.515 243.959,220.377 245.875 L 219.400 246.750 217.900 245.414 C 217.075 244.680,216.400 243.882,216.400 243.642 C 216.400 243.402,213.970 240.770,211.000 237.793 C 208.030 234.816,205.600 232.204,205.600 231.988 C 205.600 231.772,203.080 229.084,200.000 226.014 C 196.920 222.944,194.400 220.337,194.400 220.219 C 194.400 219.919,192.835 218.104,191.313 216.639 C 190.606 215.957,189.821 215.194,189.571 214.943 C 189.320 214.691,188.334 213.701,187.381 212.743 C 186.427 211.784,185.411 210.784,185.123 210.519 C 184.248 209.715,183.600 208.853,183.600 208.493 C 183.600 208.305,182.835 207.403,181.900 206.489 C 180.965 205.575,179.617 204.236,178.905 203.514 C 178.193 202.791,177.227 201.817,176.758 201.348 C 176.288 200.879,175.290 199.844,174.539 199.048 C 173.788 198.252,172.999 197.600,172.787 197.600 C 172.574 197.600,172.400 197.331,172.400 197.003 C 172.400 195.823,170.720 194.400,169.328 194.400 C 168.598 194.400,168.000 194.580,168.000 194.800 C 168.000 195.020,167.730 195.200,167.400 195.200 C 167.070 195.200,166.800 195.380,166.800 195.600 C 166.800 195.820,166.480 196.000,166.088 196.000 C 165.697 196.000,165.118 196.359,164.801 196.798 C 164.485 197.237,163.635 197.707,162.913 197.843 C 162.191 197.978,161.600 198.249,161.600 198.445 C 161.600 198.640,161.240 198.800,160.800 198.800 C 160.360 198.800,160.000 198.980,160.000 199.200 C 160.000 199.420,159.730 199.600,159.400 199.600 C 159.070 199.600,158.800 199.780,158.800 200.000 C 158.800 200.220,158.506 200.400,158.147 200.400 C 157.788 200.400,157.203 200.736,156.847 201.146 C 156.491 201.557,155.614 202.021,154.900 202.178 C 154.185 202.335,153.600 202.629,153.600 202.832 C 153.600 203.034,153.240 203.200,152.800 203.200 C 152.360 203.200,152.000 203.380,152.000 203.600 C 152.000 203.820,151.640 204.000,151.200 204.000 C 150.760 204.000,150.400 204.180,150.400 204.400 C 150.400 204.620,150.196 204.800,149.947 204.800 C 149.698 204.800,149.203 205.136,148.847 205.546 C 148.491 205.957,147.614 206.421,146.900 206.578 C 146.185 206.735,145.600 207.029,145.600 207.232 C 145.600 207.434,145.240 207.600,144.800 207.600 C 144.360 207.600,144.000 207.780,144.000 208.000 C 144.000 208.220,143.640 208.400,143.200 208.400 C 142.760 208.400,142.400 208.580,142.400 208.800 C 142.400 209.020,142.170 209.200,141.888 209.200 C 141.607 209.200,141.117 209.560,140.800 210.000 C 140.483 210.440,139.994 210.800,139.714 210.800 C 138.948 210.800,136.000 212.145,136.000 212.494 C 136.000 212.662,135.640 212.800,135.200 212.800 C 134.760 212.800,134.400 212.980,134.400 213.200 C 134.400 213.420,134.140 213.600,133.823 213.600 C 133.505 213.600,133.004 213.945,132.709 214.366 C 132.414 214.787,131.504 215.257,130.686 215.410 C 129.869 215.564,129.200 215.849,129.200 216.045 C 129.200 216.240,128.930 216.400,128.600 216.400 C 128.270 216.400,128.000 216.580,128.000 216.800 C 128.000 217.020,127.640 217.200,127.200 217.200 C 126.760 217.200,126.400 217.380,126.400 217.600 C 126.400 217.820,126.080 218.000,125.688 218.000 C 125.297 218.000,124.718 218.359,124.401 218.798 C 124.085 219.237,123.235 219.707,122.513 219.843 C 121.791 219.978,121.200 220.215,121.200 220.370 C 121.200 220.524,120.570 220.898,119.800 221.200 C 119.030 221.502,118.400 221.896,118.400 222.075 C 118.400 222.254,118.080 222.400,117.688 222.400 C 117.297 222.400,116.718 222.759,116.401 223.198 C 116.085 223.637,115.235 224.107,114.513 224.243 C 113.791 224.378,113.200 224.649,113.200 224.845 C 113.200 225.040,112.840 225.200,112.400 225.200 C 111.960 225.200,111.600 225.380,111.600 225.600 C 111.600 225.820,111.370 226.000,111.088 226.000 C 110.807 226.000,110.317 226.360,110.000 226.800 C 109.683 227.240,109.103 227.600,108.712 227.600 C 108.320 227.600,108.000 227.772,108.000 227.982 C 108.000 228.192,107.370 228.482,106.600 228.626 C 105.830 228.771,105.200 229.049,105.200 229.245 C 105.200 229.440,104.840 229.600,104.400 229.600 C 103.960 229.600,103.600 229.780,103.600 230.000 C 103.600 230.220,103.370 230.400,103.088 230.400 C 102.807 230.400,102.317 230.760,102.000 231.200 C 101.683 231.640,101.103 232.000,100.712 232.000 C 100.320 232.000,100.000 232.160,100.000 232.355 C 100.000 232.551,99.370 232.829,98.600 232.974 C 97.830 233.118,97.200 233.408,97.200 233.618 C 97.200 233.828,96.840 234.000,96.400 234.000 C 95.960 234.000,95.600 234.180,95.600 234.400 C 95.600 234.620,95.332 234.800,95.003 234.800 C 94.675 234.800,94.182 235.160,93.907 235.600 C 93.632 236.040,93.101 236.400,92.727 236.400 C 92.353 236.400,91.945 236.566,91.819 236.769 C 91.694 236.972,91.053 237.257,90.395 237.401 C 89.738 237.545,89.200 237.829,89.200 238.032 C 89.200 238.234,88.840 238.400,88.400 238.400 C 87.960 238.400,87.600 238.580,87.600 238.800 C 87.600 239.020,87.280 239.200,86.888 239.200 C 86.497 239.200,85.917 239.560,85.600 240.000 C 85.283 240.440,84.856 240.800,84.652 240.800 C 84.061 240.800,79.829 242.920,79.522 243.370 C 79.369 243.594,79.121 243.654,78.972 243.505 C 78.822 243.355,79.892 242.064,81.350 240.635 C 82.807 239.205,84.000 237.857,84.000 237.638 C 84.000 237.419,86.610 234.621,89.800 231.420 C 92.990 228.220,95.600 225.343,95.600 225.028 C 95.600 224.712,95.920 224.352,96.311 224.228 C 96.702 224.104,97.287 223.619,97.611 223.150 C 97.935 222.681,100.405 220.077,103.100 217.363 C 105.795 214.649,108.000 212.164,108.000 211.841 C 108.000 211.518,108.320 211.152,108.711 211.028 C 109.102 210.904,109.687 210.411,110.011 209.933 C 110.335 209.455,111.410 208.291,112.400 207.347 C 113.390 206.403,114.380 205.432,114.600 205.190 C 114.820 204.947,116.035 203.714,117.300 202.449 C 118.565 201.185,119.600 199.886,119.600 199.564 C 119.600 199.241,119.986 198.712,120.458 198.388 C 120.930 198.065,121.898 197.194,122.610 196.452 C 123.322 195.711,124.288 194.721,124.758 194.252 C 125.227 193.784,126.193 192.809,126.905 192.086 C 127.617 191.364,128.965 190.025,129.900 189.111 C 130.835 188.197,131.600 187.295,131.600 187.107 C 131.600 186.747,132.248 185.885,133.123 185.081 C 133.411 184.816,134.427 183.816,135.381 182.857 C 136.334 181.899,137.294 180.934,137.514 180.714 C 137.734 180.494,138.518 179.720,139.257 178.994 C 141.549 176.743,143.200 174.926,143.200 174.655 C 143.200 174.513,145.810 171.772,149.000 168.566 C 152.190 165.360,154.800 162.579,154.800 162.387 C 154.800 162.196,157.590 159.246,161.000 155.832 C 164.410 152.418,167.200 149.444,167.200 149.224 C 167.200 148.822,179.070 136.800,179.468 136.800 C 179.585 136.800,182.542 139.682,186.040 143.203 " stroke="none" fill="#047cfc" fill-rule="evenodd"></path><path id="path2" d="M287.600 38.084 C 287.600 38.204,287.328 38.954,286.995 39.751 C 286.662 40.548,286.479 41.200,286.589 41.200 C 286.906 41.200,288.033 38.300,287.805 38.072 C 287.692 37.959,287.600 37.965,287.600 38.084 M283.293 72.000 C 283.293 72.770,283.375 73.085,283.476 72.700 C 283.576 72.315,283.576 71.685,283.476 71.300 C 283.375 70.915,283.293 71.230,283.293 72.000 M284.006 75.833 C 284.009 76.255,284.195 76.870,284.418 77.200 C 284.715 77.638,284.752 77.476,284.556 76.600 C 284.227 75.129,283.998 74.810,284.006 75.833 M296.229 99.638 C 296.873 100.429,297.481 101.008,297.579 100.925 C 297.678 100.842,297.151 100.195,296.409 99.487 L 295.058 98.200 296.229 99.638 M327.400 118.400 C 327.840 118.589,328.470 118.744,328.800 118.744 C 329.178 118.744,329.104 118.617,328.600 118.400 C 328.160 118.211,327.530 118.056,327.200 118.056 C 326.822 118.056,326.896 118.183,327.400 118.400 M351.200 118.400 C 350.396 118.657,350.357 118.723,351.000 118.732 C 351.440 118.738,352.160 118.589,352.600 118.400 C 353.619 117.962,352.568 117.962,351.200 118.400 M331.800 119.197 C 332.564 119.528,335.514 119.755,335.167 119.456 C 335.075 119.377,334.100 119.209,333.000 119.082 C 331.713 118.933,331.285 118.974,331.800 119.197 M345.300 119.476 C 345.685 119.576,346.315 119.576,346.700 119.476 C 347.085 119.375,346.770 119.293,346.000 119.293 C 345.230 119.293,344.915 119.375,345.300 119.476 " stroke="none" fill="#5268b4" fill-rule="evenodd"></path><path id="path3" d="M292.893 29.900 C 291.857 31.396,291.521 32.000,291.723 32.000 C 291.817 32.000,292.370 31.280,292.953 30.400 C 294.136 28.612,294.084 28.179,292.893 29.900 M286.996 40.672 C 286.658 41.481,286.433 42.300,286.497 42.491 C 286.561 42.682,286.916 42.020,287.287 41.019 C 288.093 38.845,287.870 38.579,286.996 40.672 M283.850 51.250 C 283.517 52.917,283.840 53.240,284.200 51.600 C 284.352 50.909,284.393 50.259,284.291 50.158 C 284.189 50.056,283.991 50.547,283.850 51.250 M283.054 56.656 C 282.731 59.015,282.776 66.046,283.130 68.400 C 283.278 69.390,283.400 66.735,283.400 62.500 C 283.400 53.936,283.408 54.075,283.054 56.656 M283.656 72.200 C 283.656 72.640,283.811 73.360,284.000 73.800 L 284.344 74.600 284.344 73.800 C 284.344 73.360,284.189 72.640,284.000 72.200 L 283.656 71.400 283.656 72.200 M284.644 76.600 C 284.973 78.071,285.202 78.390,285.194 77.367 C 285.191 76.945,285.005 76.330,284.782 76.000 C 284.485 75.562,284.448 75.724,284.644 76.600 M290.749 91.400 C 290.965 91.840,291.434 92.560,291.793 93.000 L 292.444 93.800 292.051 93.000 C 291.835 92.560,291.366 91.840,291.007 91.400 L 290.356 90.600 290.749 91.400 M293.600 95.448 C 293.600 95.658,294.153 96.453,294.829 97.215 L 296.058 98.600 294.945 97.000 C 294.333 96.120,293.780 95.325,293.716 95.233 C 293.652 95.142,293.600 95.238,293.600 95.448 M298.213 101.259 C 300.845 103.970,302.655 105.661,304.311 106.951 C 304.910 107.418,303.330 105.777,300.800 103.305 C 295.834 98.452,294.341 97.271,298.213 101.259 M306.600 108.588 C 307.808 109.646,309.200 110.553,309.200 110.282 C 309.200 110.201,308.345 109.551,307.300 108.836 C 305.862 107.852,305.692 107.792,306.600 108.588 M369.100 111.029 C 367.605 111.840,367.696 112.178,369.200 111.400 C 369.860 111.059,370.400 110.694,370.400 110.590 C 370.400 110.332,370.357 110.347,369.100 111.029 M311.200 111.623 C 312.194 112.303,317.157 114.801,317.490 114.788 C 317.661 114.782,316.270 113.973,314.400 112.990 C 311.121 111.266,309.946 110.764,311.200 111.623 M365.068 113.196 C 362.520 114.436,361.589 115.088,363.295 114.440 C 364.866 113.843,367.600 112.415,367.600 112.192 C 367.600 111.948,367.783 111.875,365.068 113.196 M325.600 117.582 C 325.930 117.805,326.545 117.991,326.967 117.994 C 327.990 118.002,327.671 117.773,326.200 117.444 C 325.324 117.248,325.162 117.285,325.600 117.582 M353.000 117.600 L 352.200 117.944 353.000 117.966 C 353.440 117.978,354.070 117.813,354.400 117.600 C 355.195 117.086,354.196 117.086,353.000 117.600 M347.800 118.443 C 344.221 118.958,343.837 119.180,346.975 118.920 C 349.659 118.698,352.770 118.051,351.000 118.083 C 350.560 118.091,349.120 118.253,347.800 118.443 M330.033 118.551 C 330.125 118.634,331.460 118.802,333.000 118.926 C 335.152 119.098,335.430 119.069,334.200 118.798 C 332.583 118.442,329.726 118.273,330.033 118.551 M338.500 119.491 C 339.325 119.578,340.675 119.578,341.500 119.491 C 342.325 119.405,341.650 119.334,340.000 119.334 C 338.350 119.334,337.675 119.405,338.500 119.491 " stroke="none" fill="#845c84" fill-rule="evenodd"></path><path id="path4" d="M298.800 102.200 C 299.546 102.970,300.247 103.600,300.357 103.600 C 300.467 103.600,299.946 102.970,299.200 102.200 C 298.454 101.430,297.753 100.800,297.643 100.800 C 297.533 100.800,298.054 101.430,298.800 102.200 " stroke="none" fill="#6c649c" fill-rule="evenodd"></path></g></svg>